<svg id="visual" viewBox="0 0 900 600" width="900" height="600" xmlns="http://www.w3.org/2000/svg" xmlns:xlink="http://www.w3.org/1999/xlink" version="1.1"><rect x="0" y="0" width="900" height="600" fill="#871400"></rect><path d="M0 430L129 362L257 388L386 401L514 356L643 370L771 434L900 376L900 601L771 601L643 601L514 601L386 601L257 601L129 601L0 601Z" fill="#f5730a"></path><path d="M0 417L129 475L257 405L386 467L514 400L643 403L771 426L900 408L900 601L771 601L643 601L514 601L386 601L257 601L129 601L0 601Z" fill="#da5b09"></path><path d="M0 441L129 505L257 495L386 485L514 438L643 500L771 471L900 491L900 601L771 601L643 601L514 601L386 601L257 601L129 601L0 601Z" fill="#be4407"></path><path d="M0 486L129 501L257 528L386 541L514 532L643 504L771 521L900 509L900 601L771 601L643 601L514 601L386 601L257 601L129 601L0 601Z" fill="#a32d04"></path><path d="M0 558L129 559L257 529L386 530L514 558L643 566L771 555L900 532L900 601L771 601L643 601L514 601L386 601L257 601L129 601L0 601Z" fill="#871400"></path></svg>